<svg xmlns="http://www.w3.org/2000/svg" viewBox="0 0 160 180" fill="none">
  <path d="M78 166c34 0 62-25 62-58 0-20-10-37-25-48 3-15-5-33-20-39-9 12-18 18-31 22C45 49 31 66 26 88c-8 35 17 78 52 78Z" fill="#EAF5F1" stroke="#203015" stroke-width="8" stroke-linejoin="round"/>
  <path d="M95 21c3 17-6 31-23 39" stroke="#203015" stroke-width="7" stroke-linecap="round"/>
  <path d="M61 91c0 5-3 9-7 9s-7-4-7-9 3-9 7-9 7 4 7 9ZM108 91c0 5-3 9-7 9s-7-4-7-9 3-9 7-9 7 4 7 9Z" fill="#203015"/>
  <path d="M67 121c9 8 22 8 31 0" stroke="#203015" stroke-width="7" stroke-linecap="round"/>
  <path d="M39 53c-9-12-8-24 2-34 12 7 17 17 15 32" fill="#F6DFA6" stroke="#203015" stroke-width="7" stroke-linejoin="round"/>
  <path d="M25 133c13-8 28-12 44-12 23 0 43 8 57 22-10 14-27 23-48 23-23 0-43-13-53-33Z" fill="#9CCA56" stroke="#203015" stroke-width="7" stroke-linejoin="round"/>
  <path d="M61 47c11 9 28 9 41 0" stroke="#203015" stroke-width="7" stroke-linecap="round"/>
</svg>
