<svg xmlns="http://www.w3.org/2000/svg" viewBox="0 0 160 180" fill="none">
  <path d="M21 152c19-21 25-50 23-78-2-26 12-49 37-49 28 0 45 22 42 49-3 30 5 58 22 78-34 18-89 18-124 0Z" fill="#fff" stroke="#fff" stroke-width="16" stroke-linejoin="round"/>
  <path d="M21 152c19-21 25-50 23-78-2-26 12-49 37-49 28 0 45 22 42 49-3 30 5 58 22 78-34 18-89 18-124 0Z" fill="#2257c9" stroke="#203015" stroke-width="5" stroke-linejoin="round"/>
  <path d="M45 113h75l18 39c-33 18-84 18-117 0l24-39Z" fill="#2aa8d8" stroke="#203015" stroke-width="5" stroke-linejoin="round"/>
  <circle cx="82" cy="56" r="30" fill="#b87955" stroke="#203015" stroke-width="5"/>
  <path d="M53 48c7-24 45-29 61-3-18-1-35-5-49-14-2 8-6 14-12 17Z" fill="#241d1b"/>
  <circle cx="70" cy="62" r="4.5" fill="#203015"/>
  <circle cx="94" cy="62" r="4.5" fill="#203015"/>
  <path d="M73 77c6 4 14 4 20 0" stroke="#203015" stroke-width="4" stroke-linecap="round"/>
  <text x="82" y="137" text-anchor="middle" font-family="Arial, sans-serif" font-size="38" font-weight="900" fill="#fff">1</text>
  <path d="M26 86c-14 3-21-8-15-21l26-8 8 23-19 6ZM134 86c14 3 21-8 15-21l-26-8-8 23 19 6Z" fill="#fff8cc" stroke="#203015" stroke-width="5" stroke-linejoin="round"/>
  <path d="M21 34c14 7 24 18 31 34M139 34c-14 7-24 18-31 34" stroke="#ffc400" stroke-width="6" stroke-linecap="round"/>
</svg>
