<svg xmlns="http://www.w3.org/2000/svg" viewBox="0 0 160 180" fill="none">
  <path d="M80 166c30 0 55-23 55-52 0-17-8-32-21-41 4-22-10-46-34-46S42 51 46 73c-13 10-21 24-21 41 0 29 25 52 55 52Z" fill="#fff" stroke="#fff" stroke-width="16" stroke-linejoin="round"/>
  <path d="M80 166c30 0 55-23 55-52 0-17-8-32-21-41 4-22-10-46-34-46S42 51 46 73c-13 10-21 24-21 41 0 29 25 52 55 52Z" fill="#E9F6DC" stroke="#203015" stroke-width="5" stroke-linejoin="round"/>
  <path d="M47 76 24 53c20-6 36 2 43 20M113 76l23-23c-20-6-36 2-43 20" fill="#B8EC9D" stroke="#203015" stroke-width="5" stroke-linejoin="round"/>
  <path d="M48 71c6-30 57-42 74 1-22-10-48-9-74-1Z" fill="#75A843" stroke="#203015" stroke-width="5" stroke-linejoin="round"/>
  <path d="M62 97c0 5-3 9-7 9s-7-4-7-9 3-9 7-9 7 4 7 9ZM112 97c0 5-3 9-7 9s-7-4-7-9 3-9 7-9 7 4 7 9Z" fill="#203015"/>
  <path d="M66 126c9 8 21 8 30 0" stroke="#203015" stroke-width="5" stroke-linecap="round"/>
  <path d="M39 135c18-12 66-12 84 0-8 19-24 31-43 31s-34-12-41-31Z" fill="#7FD4B0" stroke="#203015" stroke-width="5" stroke-linejoin="round"/>
  <path d="M77 39c-5 15-20 22-34 27M84 39c6 14 20 21 34 27" stroke="#F7FFE5" stroke-width="4" stroke-linecap="round"/>
  <circle cx="80" cy="16" r="8" fill="#FFF6C4" stroke="#203015" stroke-width="4"/>
</svg>
