<svg xmlns="http://www.w3.org/2000/svg" viewBox="0 0 160 180" fill="none">
  <path d="M35 166c9-23 14-49 15-78-12-11-14-27-4-40 12-15 35-18 55-9 18 8 31 27 27 48 2 29 7 55 16 79-33-10-75-10-109 0Z" fill="#fff" stroke="#fff" stroke-width="16" stroke-linejoin="round"/>
  <path d="M35 166c9-23 14-49 15-78-12-11-14-27-4-40 12-15 35-18 55-9 18 8 31 27 27 48 2 29 7 55 16 79-33-10-75-10-109 0Z" fill="#70B85E" stroke="#203015" stroke-width="5" stroke-linejoin="round"/>
  <path d="M53 51c12-23 54-24 69 7-19-4-37-9-53-18-5 7-10 11-16 11Z" fill="#203015"/>
  <path d="M65 81c4 4 12 4 16 0M99 81c4 4 12 4 16 0" stroke="#203015" stroke-width="5" stroke-linecap="round"/>
  <path d="M76 113c9 8 22 8 31 0" stroke="#203015" stroke-width="5" stroke-linecap="round"/>
  <path d="M30 110c-12 4-18-4-14-16l25-10 8 19-19 7ZM130 110c12 4 18-4 14-16l-25-10-8 19 19 7Z" fill="#70B85E" stroke="#203015" stroke-width="5" stroke-linejoin="round"/>
  <path d="M56 140h52" stroke="#203015" stroke-width="8" stroke-linecap="round"/>
</svg>
