<svg width="120" height="120" viewBox="0 0 120 120" xmlns="http://www.w3.org/2000/svg" role="img" aria-label="Brave ladybug">
  <defs>
    <filter id="shadow" x="-20%" y="-10%" width="140%" height="140%">
      <feDropShadow dx="0" dy="7" stdDeviation="5" flood-color="#203015" flood-opacity="0.18"/>
    </filter>
    <linearGradient id="wing" x1="24" y1="24" x2="92" y2="102" gradientUnits="userSpaceOnUse">
      <stop stop-color="#ff8aa0"/>
      <stop offset="0.48" stop-color="#e84f65"/>
      <stop offset="1" stop-color="#b91f36"/>
    </linearGradient>
  </defs>
  <g filter="url(#shadow)">
    <path d="M41 21c5-9 23-9 28 0" fill="none" stroke="#2f4d24" stroke-width="7" stroke-linecap="round"/>
    <circle cx="55" cy="48" r="22" fill="#26331f"/>
    <path d="M20 65c0-28 18-45 40-45s40 17 40 45c0 25-18 40-40 40S20 90 20 65Z" fill="url(#wing)" stroke="#26331f" stroke-width="6" stroke-linejoin="round"/>
    <path d="M60 24v78" stroke="#26331f" stroke-width="5" stroke-linecap="round"/>
    <circle cx="41" cy="52" r="7" fill="#26331f"/>
    <circle cx="78" cy="52" r="7" fill="#26331f"/>
    <circle cx="38" cy="76" r="8" fill="#26331f"/>
    <circle cx="82" cy="76" r="8" fill="#26331f"/>
    <circle cx="60" cy="67" r="7" fill="#26331f"/>
    <circle cx="47" cy="41" r="5" fill="#fff7ff"/>
    <circle cx="73" cy="41" r="5" fill="#fff7ff"/>
    <circle cx="49" cy="41" r="2" fill="#26331f"/>
    <circle cx="71" cy="41" r="2" fill="#26331f"/>
    <path d="M50 55c5 5 15 5 20 0" fill="none" stroke="#fff7ff" stroke-width="4" stroke-linecap="round"/>
    <path d="M20 67H8M100 67h12M25 82l-12 8M95 82l12 8" stroke="#2f4d24" stroke-width="6" stroke-linecap="round"/>
  </g>
</svg>
