<svg xmlns="http://www.w3.org/2000/svg" viewBox="0 0 96 96">
  <circle cx="48" cy="48" r="44" fill="#fff1d6"/>
  <path d="M18 61c7-28 31-43 60-34-3 26-23 44-60 34Z" fill="#d43f24"/>
  <path d="M24 58c9-18 26-28 50-27-8 15-25 25-50 27Z" fill="#ffb03a" opacity=".88"/>
  <path d="M25 45c7-19 30-27 49-19-2 9-9 18-18 23 2-8 0-15-5-20-5 9-15 15-26 16Z" fill="#260909"/>
  <rect x="24" y="40" width="48" height="22" rx="9" fill="#260909"/>
  <path d="M30 51h36" stroke="#ffb03a" stroke-width="5" stroke-linecap="round"/>
  <circle cx="39" cy="51" r="3" fill="#fff1d6"/>
  <circle cx="57" cy="51" r="3" fill="#fff1d6"/>
  <path d="M35 70c9 6 19 6 27 0" fill="none" stroke="#260909" stroke-width="5" stroke-linecap="round"/>
</svg>
