<svg xmlns="http://www.w3.org/2000/svg" viewBox="0 0 160 180" fill="none">
  <path d="M26 159c20-21 20-52 17-83-2-24 13-48 38-48 28 0 45 22 43 49-2 29 3 60 17 82-30 15-83 15-115 0Z" fill="#fff" stroke="#fff" stroke-width="16" stroke-linejoin="round"/>
  <path d="M26 159c20-21 20-52 17-83-2-24 13-48 38-48 28 0 45 22 43 49-2 29 3 60 17 82-30 15-83 15-115 0Z" fill="#c60b1e" stroke="#203015" stroke-width="5" stroke-linejoin="round"/>
  <path d="M45 112h73l13 47c-28 13-78 13-105 0l19-47Z" fill="#ffc400" stroke="#203015" stroke-width="5" stroke-linejoin="round"/>
  <path d="M57 91c10 8 36 8 46 0" stroke="#ffc400" stroke-width="12" stroke-linecap="round"/>
  <circle cx="80" cy="57" r="30" fill="#b8754f" stroke="#203015" stroke-width="5"/>
  <path d="M53 48c5-23 40-34 61-9-19-2-34-7-47-18-2 12-7 21-14 27Z" fill="#1c1715"/>
  <circle cx="69" cy="62" r="4.5" fill="#203015"/>
  <circle cx="92" cy="62" r="4.5" fill="#203015"/>
  <path d="M72 77c6 4 14 4 20 0" stroke="#203015" stroke-width="4" stroke-linecap="round"/>
  <text x="80" y="133" text-anchor="middle" font-family="Arial, sans-serif" font-size="31" font-weight="900" fill="#203015">19</text>
  <path d="M123 45l11-20 2 17 16-5-14 13 12 9-17-2-4 18-5-17-16 3 14-11-12-11 13 6Z" fill="#ffc400" stroke="#203015" stroke-width="3" stroke-linejoin="round"/>
  <circle cx="31" cy="136" r="14" fill="#fff" stroke="#203015" stroke-width="4"/>
  <path d="M31 122v28M17 136h28M22 126l18 20M40 126l-18 20" stroke="#203015" stroke-width="2" opacity=".55"/>
</svg>
