<svg xmlns="http://www.w3.org/2000/svg" viewBox="0 0 160 180" fill="none">
  <path d="M29 158c17-24 19-52 15-83-3-25 11-48 36-48 25 0 42 21 39 48-3 31 4 58 19 83-31 15-78 15-109 0Z" fill="#fff" stroke="#fff" stroke-width="16" stroke-linejoin="round"/>
  <path d="M29 158c17-24 19-52 15-83-3-25 11-48 36-48 25 0 42 21 39 48-3 31 4 58 19 83-31 15-78 15-109 0Z" fill="#ffc400" stroke="#203015" stroke-width="5" stroke-linejoin="round"/>
  <path d="M44 113h75l16 45c-31 15-76 15-106 0l15-45Z" fill="#c60b1e" stroke="#203015" stroke-width="5" stroke-linejoin="round"/>
  <circle cx="80" cy="58" r="30" fill="#c98a5a" stroke="#203015" stroke-width="5"/>
  <path d="M50 50c8-28 51-31 64-3-20 0-38-4-54-13-2 7-5 13-10 16Z" fill="#2b211b"/>
  <circle cx="68" cy="63" r="4.5" fill="#203015"/>
  <circle cx="92" cy="63" r="4.5" fill="#203015"/>
  <path d="M70 78c7 5 15 5 22 0" stroke="#203015" stroke-width="4" stroke-linecap="round"/>
  <text x="80" y="136" text-anchor="middle" font-family="Arial, sans-serif" font-size="34" font-weight="900" fill="#fff8cc">6</text>
  <path d="M24 112c24-20 50-27 80-21" stroke="#203015" stroke-width="5" stroke-linecap="round" opacity=".35"/>
  <path d="M24 112c24-20 50-27 80-21" stroke="#fff8cc" stroke-width="2.5" stroke-linecap="round" stroke-dasharray="6 7"/>
  <circle cx="125" cy="118" r="12" fill="#fff" stroke="#203015" stroke-width="4"/>
  <path d="M125 106v24M113 118h24M117 110l16 16M133 110l-16 16" stroke="#203015" stroke-width="2" opacity=".55"/>
</svg>
